<svg width="364" height="114" viewBox="0 0 364 114" fill="none" xmlns="http://www.w3.org/2000/svg">
<path d="M114 0H0V114H114V0Z" fill="#F7DF1E"/>
<path d="M76.579 89.063C78.8753 92.8123 81.8629 95.5682 87.1467 95.5682C91.5854 95.5682 94.421 93.3497 94.421 90.2844C94.421 86.611 91.5076 85.31 86.6219 83.173L83.9438 82.0239C76.2135 78.7306 71.0781 74.6049 71.0781 65.8829C71.0781 57.8487 77.1997 51.7325 86.7667 51.7325C93.5777 51.7325 98.4743 54.103 102.003 60.3096L93.6609 65.6658C91.8243 62.3725 89.8429 61.075 86.7667 61.075C83.629 61.075 81.6403 63.0655 81.6403 65.6658C81.6403 68.8795 83.6308 70.1806 88.227 72.171L90.905 73.3183C100.007 77.2214 105.146 81.2006 105.146 90.1469C105.146 99.7916 97.5695 105.075 87.3946 105.075C77.4458 105.075 71.0184 100.334 67.8734 94.1206L76.579 89.063ZM38.7365 89.9912C40.4193 92.9769 41.9502 95.5012 45.6308 95.5012C49.1503 95.5012 51.3706 94.1242 51.3706 88.7698V52.3441H62.083V88.9146C62.083 100.007 55.5795 105.056 46.0868 105.056C37.5096 105.056 32.5425 100.617 30.0164 95.2705L38.7365 89.9912Z" fill="black"/>
<path d="M186.909 61.0859C186.536 59.7898 186.012 58.6445 185.338 57.6502C184.663 56.6381 183.837 55.7859 182.861 55.0934C181.902 54.3832 180.801 53.8416 179.558 53.4688C178.333 53.0959 176.975 52.9094 175.483 52.9094C172.696 52.9094 170.245 53.6019 168.132 54.9869C166.037 56.3718 164.404 58.3871 163.232 61.0327C162.06 63.6605 161.474 66.8743 161.474 70.674C161.474 74.4737 162.051 77.7053 163.205 80.3686C164.359 83.032 165.993 85.065 168.106 86.4677C170.219 87.8526 172.713 88.5451 175.59 88.5451C178.2 88.5451 180.428 88.0835 182.275 87.1602C184.139 86.2191 185.56 84.8963 186.536 83.1918C187.531 81.4872 188.028 79.4719 188.028 77.146L190.371 77.4922H176.309V68.8097H199.134V75.6811C199.134 80.4751 198.122 84.5945 196.098 88.0391C194.074 91.4659 191.286 94.1115 187.735 95.9759C184.184 97.8224 180.118 98.7457 175.537 98.7457C170.423 98.7457 165.931 97.6183 162.06 95.3633C158.189 93.0906 155.171 89.8679 153.005 85.6953C150.856 81.505 149.782 76.5334 149.782 70.7805C149.782 66.3594 150.421 62.4176 151.7 58.9553C152.996 55.4751 154.807 52.5277 157.133 50.1129C159.459 47.6982 162.167 45.8604 165.256 44.5998C168.346 43.3391 171.692 42.7088 175.297 42.7088C178.386 42.7088 181.263 43.1616 183.926 44.0671C186.589 44.9549 188.951 46.2156 191.011 47.8491C193.088 49.4826 194.784 51.4268 196.098 53.6818C197.412 55.919 198.255 58.3871 198.628 61.0859H186.909Z" fill="black"/>
<path d="M226.227 98.799C222.019 98.799 218.397 97.9467 215.36 96.2422C212.342 94.5199 210.016 92.0874 208.382 88.9446C206.749 85.7841 205.932 82.0465 205.932 77.7319C205.932 73.5238 206.749 69.8306 208.382 66.6523C210.016 63.4741 212.315 60.9972 215.28 59.2216C218.263 57.446 221.761 56.5582 225.774 56.5582C228.473 56.5582 230.985 56.9933 233.311 57.8633C235.655 58.7156 237.697 60.0028 239.437 61.7251C241.195 63.4474 242.562 65.6136 243.539 68.2237C244.515 70.816 245.003 73.8523 245.003 77.3324V80.4485H210.46V73.4173H234.323C234.323 71.7837 233.968 70.3366 233.258 69.076C232.548 67.8153 231.562 66.8299 230.302 66.1197C229.059 65.3917 227.612 65.0277 225.96 65.0277C224.238 65.0277 222.711 65.4272 221.38 66.2262C220.066 67.0075 219.036 68.0639 218.29 69.3956C217.544 70.7095 217.163 72.1744 217.145 73.7901V80.4751C217.145 82.4993 217.518 84.2482 218.263 85.7219C219.027 87.1957 220.101 88.332 221.486 89.131C222.871 89.93 224.513 90.3295 226.413 90.3295C227.674 90.3295 228.828 90.152 229.876 89.7969C230.923 89.4418 231.82 88.9091 232.566 88.1989C233.311 87.4886 233.88 86.6186 234.27 85.5888L244.764 86.2812C244.231 88.8026 243.139 91.0043 241.488 92.8864C239.854 94.7507 237.741 96.2067 235.149 97.2543C232.574 98.2841 229.6 98.799 226.227 98.799Z" fill="black"/>
<path d="M270.891 98.799C266.754 98.799 263.176 97.9201 260.158 96.1623C257.157 94.3867 254.84 91.9187 253.207 88.7582C251.573 85.5799 250.756 81.8956 250.756 77.7053C250.756 73.4794 251.573 69.7862 253.207 66.6257C254.84 63.4474 257.157 60.9794 260.158 59.2216C263.176 57.446 266.754 56.5582 270.891 56.5582C275.028 56.5582 278.597 57.446 281.598 59.2216C284.616 60.9794 286.942 63.4474 288.576 66.6257C290.209 69.7862 291.026 73.4794 291.026 77.7053C291.026 81.8956 290.209 85.5799 288.576 88.7582C286.942 91.9187 284.616 94.3867 281.598 96.1623C278.597 97.9201 275.028 98.799 270.891 98.799ZM270.945 90.0099C272.827 90.0099 274.398 89.4773 275.659 88.4119C276.919 87.3288 277.869 85.8551 278.508 83.9908C279.165 82.1264 279.494 80.0046 279.494 77.6254C279.494 75.2461 279.165 73.1243 278.508 71.2599C277.869 69.3956 276.919 67.9219 275.659 66.8388C274.398 65.7557 272.827 65.2141 270.945 65.2141C269.045 65.2141 267.447 65.7557 266.15 66.8388C264.872 67.9219 263.904 69.3956 263.247 71.2599C262.608 73.1243 262.289 75.2461 262.289 77.6254C262.289 80.0046 262.608 82.1264 263.247 83.9908C263.904 85.8551 264.872 87.3288 266.15 88.4119C267.447 89.4773 269.045 90.0099 270.945 90.0099Z" fill="black"/>
<path d="M305.455 98H293.097L311.927 43.4545H326.788L345.592 98H333.234L319.571 55.919H319.145L305.455 98ZM304.683 76.56H333.873V85.5621H304.683V76.56Z" fill="black"/>
<path d="M363.689 43.4545V98H352.157V43.4545H363.689Z" fill="black"/>
</svg>
