<svg width="107" height="19" viewBox="0 0 107 19" fill="none" xmlns="http://www.w3.org/2000/svg">
<path d="M102.392 14.3607C101.382 14.3607 100.512 14.1562 99.7836 13.7471C99.0592 13.3338 98.5009 12.7499 98.1089 11.9957C97.7168 11.2372 97.5208 10.3401 97.5208 9.30464C97.5208 8.29469 97.7168 7.40833 98.1089 6.64555C98.5009 5.88276 99.0528 5.2883 99.7644 4.86217C100.48 4.43603 101.32 4.22296 102.283 4.22296C102.931 4.22296 103.534 4.32737 104.092 4.53617C104.654 4.74072 105.144 5.04967 105.562 5.46302C105.984 5.87637 106.312 6.39626 106.546 7.02268C106.781 7.64484 106.898 8.37353 106.898 9.20876V9.95663H98.6075V8.26913H104.335C104.335 7.87708 104.25 7.52978 104.079 7.22722C103.909 6.92467 103.672 6.68816 103.37 6.51771C103.071 6.34299 102.724 6.25563 102.328 6.25563C101.914 6.25563 101.548 6.35151 101.228 6.54327C100.913 6.73077 100.666 6.98432 100.487 7.30393C100.308 7.61927 100.216 7.97083 100.212 8.35861V9.96302C100.212 10.4488 100.301 10.8686 100.48 11.2223C100.664 11.5759 100.921 11.8487 101.254 12.0404C101.586 12.2322 101.98 12.3281 102.436 12.3281C102.739 12.3281 103.016 12.2855 103.267 12.2002C103.519 12.115 103.734 11.9872 103.913 11.8167C104.092 11.6463 104.228 11.4375 104.322 11.1903L106.84 11.3565C106.713 11.9616 106.451 12.49 106.054 12.9417C105.662 13.3892 105.155 13.7386 104.533 13.99C103.915 14.2372 103.201 14.3607 102.392 14.3607Z" fill="black"/>
<path d="M96.1587 7.15052L93.6658 7.30393C93.6232 7.09086 93.5316 6.8991 93.391 6.72864C93.2504 6.55393 93.065 6.41543 92.8349 6.31316C92.609 6.20663 92.3384 6.15336 92.0231 6.15336C91.6012 6.15336 91.2454 6.24285 90.9556 6.42182C90.6658 6.59654 90.521 6.83092 90.521 7.12495C90.521 7.35932 90.6147 7.55748 90.8022 7.71941C90.9897 7.88134 91.3114 8.01131 91.7674 8.10932L93.5444 8.46728C94.4989 8.6633 95.2106 8.97864 95.6793 9.4133C96.1481 9.84796 96.3825 10.419 96.3825 11.1264C96.3825 11.7698 96.1928 12.3345 95.8136 12.8203C95.4386 13.3061 94.923 13.6853 94.2667 13.958C93.6147 14.2265 92.8626 14.3607 92.0103 14.3607C90.7106 14.3607 89.6751 14.0901 88.9038 13.549C88.1367 13.0035 87.6872 12.262 87.5551 11.3245L90.2333 11.1839C90.3143 11.5802 90.5103 11.8828 90.8214 12.0916C91.1325 12.2961 91.5309 12.3984 92.0167 12.3984C92.494 12.3984 92.8775 12.3068 93.1673 12.1235C93.4613 11.936 93.6105 11.6953 93.6147 11.4012C93.6105 11.1541 93.506 10.9517 93.3015 10.794C93.097 10.6321 92.7816 10.5085 92.3555 10.4232L90.6552 10.0845C89.6964 9.89271 88.9826 9.56032 88.5139 9.08731C88.0494 8.6143 87.8171 8.01131 87.8171 7.27836C87.8171 6.64768 87.9876 6.10435 88.3285 5.64839C88.6737 5.19242 89.1573 4.84086 89.7795 4.5937C90.4059 4.34654 91.1389 4.22296 91.9783 4.22296C93.2184 4.22296 94.1943 4.48504 94.9059 5.00918C95.6218 5.53333 96.0394 6.24711 96.1587 7.15052Z" fill="black"/>
<path d="M80.528 14.3544C79.9016 14.3544 79.3434 14.2457 78.8533 14.0284C78.3632 13.8068 77.9755 13.4808 77.6899 13.0504C77.4087 12.6157 77.2681 12.0745 77.2681 11.4268C77.2681 10.8813 77.3682 10.4232 77.5685 10.0525C77.7688 9.68177 78.0415 9.38347 78.3867 9.15762C78.7318 8.93177 79.1239 8.76131 79.5628 8.64626C80.006 8.5312 80.4705 8.45023 80.9563 8.40336C81.5273 8.3437 81.9875 8.2883 82.337 8.23717C82.6864 8.18177 82.9399 8.1008 83.0976 7.99427C83.2553 7.88773 83.3341 7.73006 83.3341 7.52126V7.4829C83.3341 7.07807 83.2063 6.76487 82.9506 6.54327C82.6992 6.32168 82.3412 6.21089 81.8767 6.21089C81.3867 6.21089 80.9968 6.31955 80.707 6.53688C80.4172 6.74995 80.2255 7.01842 80.1317 7.34228L77.6132 7.13773C77.7411 6.54114 77.9925 6.02552 78.3675 5.59086C78.7425 5.15194 79.2262 4.81529 79.8185 4.58092C80.4151 4.34228 81.1054 4.22296 81.8895 4.22296C82.435 4.22296 82.957 4.28688 83.4556 4.41472C83.9584 4.54256 84.4037 4.74072 84.7915 5.00918C85.1835 5.27765 85.4925 5.62282 85.7184 6.04469C85.9442 6.46231 86.0571 6.96302 86.0571 7.54682V14.169H83.4747V12.8075H83.398C83.2404 13.1143 83.0294 13.3849 82.7652 13.6193C82.501 13.8494 82.1836 14.0305 81.8128 14.1626C81.4421 14.2904 81.0138 14.3544 80.528 14.3544ZM81.3078 12.4751C81.7084 12.4751 82.0621 12.3963 82.3689 12.2386C82.6757 12.0767 82.9165 11.8593 83.0912 11.5866C83.2659 11.3139 83.3533 11.0049 83.3533 10.6598V9.61785C83.2681 9.67325 83.1509 9.72438 83.0017 9.77126C82.8568 9.81387 82.6928 9.85435 82.5095 9.89271C82.3263 9.9268 82.1431 9.95876 81.9598 9.98859C81.7766 10.0142 81.6104 10.0376 81.4613 10.0589C81.1416 10.1058 80.8625 10.1803 80.6239 10.2826C80.3853 10.3849 80.1999 10.5234 80.0678 10.6981C79.9357 10.8686 79.8696 11.0816 79.8696 11.3373C79.8696 11.708 80.0039 11.9914 80.2723 12.1874C80.5451 12.3792 80.8902 12.4751 81.3078 12.4751Z" fill="black"/>
<path d="M66.5161 14.169V1.07806H69.2391V5.99994H69.3222C69.4415 5.73573 69.6141 5.46727 69.8399 5.19454C70.0701 4.91755 70.3684 4.68744 70.7348 4.5042C71.1056 4.3167 71.5658 4.22295 72.1155 4.22295C72.8314 4.22295 73.4919 4.41045 74.097 4.78545C74.7022 5.15619 75.1858 5.71656 75.548 6.46656C75.9103 7.2123 76.0914 8.14767 76.0914 9.27267C76.0914 10.3678 75.9145 11.2926 75.5608 12.0468C75.2114 12.7968 74.7341 13.3657 74.129 13.7535C73.5282 14.137 72.8549 14.3288 72.1091 14.3288C71.5807 14.3288 71.1311 14.2414 70.7604 14.0667C70.3939 13.892 70.0935 13.6725 69.8591 13.4083C69.6247 13.1399 69.4458 12.8693 69.3222 12.5965H69.2007V14.169H66.5161ZM69.1816 9.25988C69.1816 9.84369 69.2625 10.3529 69.4245 10.7876C69.5864 11.2222 69.8208 11.561 70.1276 11.8039C70.4344 12.0426 70.8073 12.1619 71.2462 12.1619C71.6894 12.1619 72.0644 12.0404 72.3712 11.7975C72.678 11.5504 72.9103 11.2095 73.0679 10.7748C73.2299 10.3359 73.3108 9.8309 73.3108 9.25988C73.3108 8.69312 73.232 8.19454 73.0743 7.76414C72.9167 7.33375 72.6844 6.9971 72.3776 6.7542C72.0708 6.5113 71.6936 6.38985 71.2462 6.38985C70.803 6.38985 70.428 6.50704 70.1212 6.74142C69.8186 6.97579 69.5864 7.30818 69.4245 7.73858C69.2625 8.16897 69.1816 8.67607 69.1816 9.25988Z" fill="black"/>
<path d="M60.042 14.3607C59.0491 14.3607 58.1904 14.1498 57.466 13.7279C56.7458 13.3018 56.1897 12.7095 55.7976 11.9509C55.4056 11.1882 55.2096 10.3039 55.2096 9.29825C55.2096 8.28404 55.4056 7.39768 55.7976 6.63915C56.1897 5.87637 56.7458 5.28404 57.466 4.86217C58.1904 4.43603 59.0491 4.22296 60.042 4.22296C61.0348 4.22296 61.8914 4.43603 62.6116 4.86217C63.336 5.28404 63.8942 5.87637 64.2863 6.63915C64.6783 7.39768 64.8743 8.28404 64.8743 9.29825C64.8743 10.3039 64.6783 11.1882 64.2863 11.9509C63.8942 12.7095 63.336 13.3018 62.6116 13.7279C61.8914 14.1498 61.0348 14.3607 60.042 14.3607ZM60.0547 12.2514C60.5064 12.2514 60.8836 12.1235 61.1861 11.8678C61.4887 11.6079 61.7167 11.2542 61.8701 10.8068C62.0277 10.3593 62.1066 9.85009 62.1066 9.27907C62.1066 8.70805 62.0277 8.19881 61.8701 7.75137C61.7167 7.30393 61.4887 6.95023 61.1861 6.69029C60.8836 6.43035 60.5064 6.30038 60.0547 6.30038C59.5988 6.30038 59.2152 6.43035 58.9042 6.69029C58.5973 6.95023 58.3651 7.30393 58.2074 7.75137C58.054 8.19881 57.9773 8.70805 57.9773 9.27907C57.9773 9.85009 58.054 10.3593 58.2074 10.8068C58.3651 11.2542 58.5973 11.6079 58.9042 11.8678C59.2152 12.1235 59.5988 12.2514 60.0547 12.2514Z" fill="black"/>
<path d="M49.5025 14.3607C48.4926 14.3607 47.6233 14.1562 46.8946 13.7471C46.1701 13.3338 45.6119 12.7499 45.2198 11.9957C44.8278 11.2372 44.6318 10.3401 44.6318 9.30464C44.6318 8.29469 44.8278 7.40833 45.2198 6.64555C45.6119 5.88276 46.1637 5.2883 46.8754 4.86217C47.5913 4.43603 48.4308 4.22296 49.3938 4.22296C50.0416 4.22296 50.6446 4.32737 51.2028 4.53617C51.7653 4.74072 52.2554 5.04967 52.673 5.46302C53.0948 5.87637 53.423 6.39626 53.6573 7.02268C53.8917 7.64484 54.0089 8.37353 54.0089 9.20876V9.95663H45.7184V8.26913H51.4457C51.4457 7.87708 51.3605 7.52978 51.19 7.22722C51.0196 6.92467 50.7831 6.68816 50.4805 6.51771C50.1822 6.34299 49.8349 6.25563 49.4386 6.25563C49.0252 6.25563 48.6588 6.35151 48.3392 6.54327C48.0238 6.73077 47.7767 6.98432 47.5977 7.30393C47.4187 7.61927 47.3271 7.97083 47.3228 8.35861V9.96302C47.3228 10.4488 47.4123 10.8686 47.5913 11.2223C47.7745 11.5759 48.0323 11.8487 48.3647 12.0404C48.6971 12.2322 49.0913 12.3281 49.5473 12.3281C49.8498 12.3281 50.1268 12.2855 50.3782 12.2002C50.6296 12.115 50.8448 11.9872 51.0238 11.8167C51.2028 11.6463 51.3392 11.4375 51.4329 11.1903L53.9514 11.3565C53.8235 11.9616 53.5615 12.49 53.1652 12.9417C52.7731 13.3892 52.266 13.7386 51.6438 13.99C51.026 14.2372 50.3122 14.3607 49.5025 14.3607Z" fill="black"/>
<path d="M38.2407 18.0553C37.3586 18.0553 36.6022 17.9339 35.9716 17.691C35.3451 17.4524 34.8466 17.1264 34.4758 16.713C34.1051 16.2997 33.8643 15.8352 33.7535 15.3196L36.272 14.9808C36.3487 15.1768 36.4701 15.36 36.6363 15.5305C36.8025 15.7009 37.022 15.8373 37.2947 15.9396C37.5717 16.0461 37.9083 16.0994 38.3047 16.0994C38.897 16.0994 39.3849 15.9545 39.7684 15.6647C40.1562 15.3792 40.3501 14.8998 40.3501 14.2265V12.4303H40.2351C40.1157 12.7031 39.9368 12.9609 39.6981 13.2038C39.4595 13.4467 39.1527 13.6448 38.7777 13.7982C38.4027 13.9517 37.9552 14.0284 37.4353 14.0284C36.6981 14.0284 36.027 13.8579 35.4218 13.517C34.821 13.1718 34.3416 12.6455 33.9836 11.9382C33.6299 11.2265 33.4531 10.3274 33.4531 9.24072C33.4531 8.1285 33.6342 7.19952 33.9964 6.45378C34.3586 5.70805 34.8402 5.14981 35.441 4.77907C36.0461 4.40833 36.7088 4.22296 37.4289 4.22296C37.9787 4.22296 38.4389 4.31671 38.8096 4.50421C39.1804 4.68745 39.4787 4.91756 39.7045 5.19455C39.9346 5.46728 40.1115 5.73575 40.2351 5.99995H40.3373V4.3508H43.0412V14.2649C43.0412 15.1001 42.8366 15.799 42.4275 16.3615C42.0184 16.924 41.4517 17.3458 40.7272 17.6271C40.0071 17.9126 39.1782 18.0553 38.2407 18.0553ZM38.2983 11.9829C38.7372 11.9829 39.1079 11.8742 39.4105 11.6569C39.7173 11.4353 39.9517 11.12 40.1136 10.7109C40.2798 10.2975 40.3629 9.80322 40.3629 9.22793C40.3629 8.65265 40.2819 8.15407 40.12 7.73219C39.9581 7.30606 39.7237 6.9758 39.4169 6.74143C39.1101 6.50705 38.7372 6.38986 38.2983 6.38986C37.8508 6.38986 37.4737 6.51131 37.1669 6.75421C36.8601 6.99285 36.6278 7.32523 36.4701 7.75137C36.3125 8.17751 36.2336 8.66969 36.2336 9.22793C36.2336 9.79469 36.3125 10.2848 36.4701 10.6981C36.6321 11.1072 36.8643 11.4247 37.1669 11.6505C37.4737 11.8721 37.8508 11.9829 38.2983 11.9829Z" fill="black"/>
<path d="M0.507858 2.60764C1.44859 3.1787 2.91171 3.65946 4.89724 4.04993C7.1703 4.49695 9.5507 4.72047 12.0384 4.72047C14.363 4.72047 16.6406 4.5101 18.8712 4.08938C20.9087 3.70507 22.4778 3.21839 23.5785 2.62934C23.5352 2.48588 23.4893 2.34356 23.4407 2.20244C22.3842 1.63677 20.8633 1.15693 18.8781 0.762908C16.5993 0.310618 14.3195 0.0844727 12.0386 0.0844727C9.73887 0.0844727 7.40369 0.306241 5.03312 0.749779C3.10081 1.1113 1.65809 1.5334 0.704961 2.01607C0.634217 2.21096 0.568466 2.4082 0.507858 2.60764Z" fill="#38996C"/>
<path d="M0.10282 4.47733C0.0349936 4.98893 0 5.51076 0 6.04066C0 7.05473 0.128151 8.03919 0.369308 8.97906C1.09206 9.36931 1.84064 9.71436 2.61504 10.0142C3.55158 10.3769 4.53251 10.6765 5.55782 10.9132C6.58313 11.1498 7.63078 11.3352 8.70079 11.4693C9.77083 11.6034 10.8839 11.6705 12.0399 11.6705C13.1501 11.6705 14.2757 11.6078 15.4168 11.4825C16.558 11.3571 17.6618 11.1704 18.7284 10.9224C19.795 10.6743 20.7848 10.3649 21.6976 9.99414C22.4238 9.6992 23.0919 9.37181 23.702 9.01199C23.9486 8.06219 24.0798 7.06658 24.0798 6.04066C24.0798 5.5099 24.0447 4.98725 23.9766 4.47485C23.2301 4.80601 22.4164 5.10477 21.5356 5.37114C20.5816 5.65962 19.5739 5.90335 18.5123 6.10236C17.4507 6.30138 16.3618 6.44821 15.2454 6.54283C14.1291 6.63745 13.0532 6.68477 12.0176 6.68477C10.8766 6.68477 9.75435 6.63307 8.65101 6.52967C7.5477 6.42629 6.47764 6.27509 5.44086 6.07607C4.40407 5.87707 3.41431 5.63644 2.4716 5.35418C1.60437 5.09455 0.81478 4.80227 0.10282 4.47733Z" fill="#38996C"/>
<path d="M22.5078 11.928C22.1485 12.0528 21.7796 12.1729 21.4014 12.2882C20.4176 12.5881 19.3875 12.8375 18.311 13.0365C17.2345 13.2355 16.1605 13.388 15.0889 13.4941C14.0173 13.6001 12.9936 13.6531 12.0176 13.6531C10.9958 13.6531 9.99291 13.6014 9.00884 13.498C8.0248 13.3946 7.02184 13.2491 5.99996 13.0615C4.97808 12.8739 3.95851 12.6333 2.94125 12.3396C2.47823 12.206 2.01722 12.0608 1.55823 11.9041C3.62662 15.5134 7.5457 17.949 12.0399 17.949C16.5242 17.949 20.4359 15.5242 22.5078 11.928Z" fill="#38996C"/>
</svg>
