<svg width="514" height="153" viewBox="0 0 514 153" fill="none" xmlns="http://www.w3.org/2000/svg">
<g filter="url(#filter0_d_1651_1222)">
<path d="M455.705 93.9596C451.604 93.9596 448.075 93.1291 445.116 91.4683C442.175 89.7901 439.909 87.4198 438.317 84.3576C436.726 81.278 435.93 77.6362 435.93 73.4321C435.93 69.3318 436.726 65.7332 438.317 62.6363C439.909 59.5395 442.149 57.126 445.039 55.3959C447.945 53.6658 451.353 52.8008 455.263 52.8008C457.893 52.8008 460.341 53.2247 462.608 54.0724C464.891 54.9028 466.881 56.1572 468.576 57.8353C470.289 59.5135 471.621 61.6242 472.573 64.1675C473.525 66.6934 474 69.6518 474 73.0428V76.0791H440.341V69.228H463.594C463.594 67.6363 463.248 66.2263 462.556 64.9979C461.864 63.7695 460.904 62.8093 459.675 62.1173C458.464 61.408 457.054 61.0533 455.445 61.0533C453.767 61.0533 452.279 61.4426 450.981 62.2211C449.701 62.9824 448.698 64.0118 447.971 65.3093C447.244 66.5896 446.873 68.0169 446.855 69.5913V76.1051C446.855 78.0774 447.219 79.7815 447.945 81.2175C448.689 82.6535 449.736 83.7607 451.085 84.5393C452.435 85.3178 454.035 85.7071 455.886 85.7071C457.115 85.7071 458.239 85.5341 459.26 85.188C460.281 84.842 461.154 84.323 461.881 83.631C462.608 82.9389 463.161 82.0912 463.542 81.0877L473.767 81.7625C473.248 84.2192 472.184 86.3645 470.575 88.1984C468.983 90.015 466.924 91.4337 464.398 92.4544C461.89 93.4579 458.992 93.9596 455.705 93.9596Z" fill="white"/>
<path d="M430.399 64.6865L420.278 65.3093C420.105 64.4443 419.733 63.6657 419.162 62.9737C418.591 62.2644 417.839 61.7021 416.905 61.2869C415.988 60.8543 414.889 60.6381 413.609 60.6381C411.896 60.6381 410.451 61.0014 409.275 61.728C408.098 62.4374 407.51 63.3889 407.51 64.5827C407.51 65.5342 407.891 66.3387 408.652 66.9962C409.413 67.6536 410.719 68.1813 412.571 68.5792L419.785 70.0325C423.661 70.8283 426.55 72.1086 428.453 73.8733C430.356 75.6379 431.308 77.9563 431.308 80.8282C431.308 83.4406 430.538 85.733 428.998 87.7053C427.475 89.6776 425.382 91.2174 422.718 92.3247C420.071 93.4146 417.017 93.9596 413.557 93.9596C408.28 93.9596 404.076 92.861 400.944 90.6638C397.83 88.4493 396.005 85.4389 395.469 81.6327L406.342 81.0618C406.671 82.6708 407.467 83.8991 408.73 84.7469C409.993 85.5773 411.61 85.9925 413.583 85.9925C415.52 85.9925 417.078 85.6206 418.254 84.8766C419.448 84.1154 420.053 83.1379 420.071 81.9441C420.053 80.9407 419.629 80.1189 418.799 79.4787C417.969 78.8213 416.688 78.3196 414.958 77.9736L408.055 76.5981C404.162 75.8196 401.265 74.4701 399.361 72.5497C397.476 70.6293 396.533 68.1813 396.533 65.2055C396.533 62.645 397.225 60.4391 398.609 58.5879C400.01 56.7367 401.974 55.3094 404.5 54.306C407.043 53.3025 410.019 52.8008 413.427 52.8008C418.462 52.8008 422.424 53.8648 425.313 55.9928C428.219 58.1208 429.915 61.0187 430.399 64.6865Z" fill="white"/>
<path d="M366.937 93.9336C364.394 93.9336 362.128 93.4925 360.138 92.6101C358.148 91.7105 356.574 90.3869 355.415 88.6396C354.273 86.8749 353.702 84.6777 353.702 82.0479C353.702 79.8334 354.109 77.9736 354.922 76.4684C355.735 74.9632 356.842 73.7521 358.244 72.8352C359.645 71.9183 361.237 71.2262 363.019 70.7591C364.818 70.292 366.704 69.9633 368.676 69.7729C370.994 69.5307 372.863 69.3058 374.282 69.0982C375.7 68.8733 376.73 68.5446 377.37 68.1121C378.01 67.6795 378.33 67.0394 378.33 66.1917V66.036C378.33 64.3924 377.811 63.1208 376.773 62.2211C375.752 61.3215 374.299 60.8716 372.413 60.8716C370.423 60.8716 368.84 61.3128 367.664 62.1952C366.488 63.0602 365.709 64.1502 365.328 65.465L355.104 64.6346C355.623 62.2125 356.643 60.1191 358.166 58.3544C359.688 56.5724 361.652 55.2056 364.057 54.2541C366.479 53.2852 369.282 52.8008 372.465 52.8008C374.679 52.8008 376.799 53.0603 378.823 53.5793C380.865 54.0983 382.672 54.9028 384.247 55.9928C385.839 57.0828 387.093 58.4841 388.01 60.1969C388.927 61.8924 389.385 63.9252 389.385 66.2955V93.181H378.901V87.6534H378.589C377.949 88.8991 377.093 89.9977 376.02 90.9492C374.948 91.8835 373.659 92.6188 372.154 93.1551C370.648 93.6741 368.91 93.9336 366.937 93.9336ZM370.103 86.3039C371.73 86.3039 373.166 85.9839 374.411 85.3437C375.657 84.6863 376.634 83.804 377.344 82.6967C378.053 81.5895 378.408 80.3351 378.408 78.9338V74.7037C378.062 74.9286 377.586 75.1362 376.98 75.3265C376.392 75.4995 375.726 75.6639 374.982 75.8196C374.238 75.958 373.494 76.0878 372.75 76.2089C372.006 76.3127 371.332 76.4078 370.726 76.4943C369.429 76.6846 368.295 76.9874 367.327 77.4026C366.358 77.8179 365.605 78.3801 365.069 79.0895C364.533 79.7815 364.264 80.6466 364.264 81.6846C364.264 83.1898 364.809 84.3403 365.899 85.1361C367.007 85.9147 368.408 86.3039 370.103 86.3039Z" fill="white"/>
<path d="M310.052 93.181V40.0327H321.107V60.0152H321.444C321.929 58.9426 322.63 57.8526 323.546 56.7454C324.481 55.6208 325.692 54.6866 327.18 53.9426C328.685 53.1814 330.553 52.8008 332.785 52.8008C335.692 52.8008 338.373 53.562 340.83 55.0845C343.287 56.5897 345.25 58.8647 346.721 61.9097C348.192 64.9373 348.927 68.7349 348.927 73.3023C348.927 77.7486 348.209 81.5029 346.773 84.5652C345.354 87.6101 343.417 89.9198 340.96 91.4942C338.52 93.0513 335.787 93.8298 332.759 93.8298C330.614 93.8298 328.789 93.4751 327.283 92.7658C325.796 92.0565 324.576 91.1655 323.624 90.0928C322.673 89.0029 321.946 87.9043 321.444 86.797H320.951V93.181H310.052ZM320.873 73.2504C320.873 75.6206 321.202 77.6881 321.86 79.4528C322.517 81.2175 323.469 82.5929 324.714 83.579C325.96 84.5479 327.474 85.0323 329.256 85.0323C331.055 85.0323 332.578 84.5392 333.823 83.5531C335.069 82.5496 336.012 81.1656 336.652 79.4009C337.309 77.6189 337.638 75.5687 337.638 73.2504C337.638 70.9494 337.318 68.9252 336.678 67.1778C336.038 65.4304 335.095 64.0636 333.849 63.0775C332.603 62.0913 331.072 61.5983 329.256 61.5983C327.456 61.5983 325.934 62.074 324.688 63.0256C323.46 63.9771 322.517 65.3266 321.86 67.074C321.202 68.8214 320.873 70.8802 320.873 73.2504Z" fill="white"/>
<path d="M283.766 93.9596C279.735 93.9596 276.248 93.1032 273.307 91.3904C270.383 89.6603 268.126 87.2555 266.534 84.1759C264.942 81.0791 264.146 77.4891 264.146 73.4061C264.146 69.2885 264.942 65.6899 266.534 62.6104C268.126 59.5135 270.383 57.1087 273.307 55.3959C276.248 53.6658 279.735 52.8008 283.766 52.8008C287.797 52.8008 291.274 53.6658 294.198 55.3959C297.139 57.1087 299.406 59.5135 300.997 62.6104C302.589 65.6899 303.385 69.2885 303.385 73.4061C303.385 77.4891 302.589 81.0791 300.997 84.1759C299.406 87.2555 297.139 89.6603 294.198 91.3904C291.274 93.1032 287.797 93.9596 283.766 93.9596ZM283.818 85.3956C285.651 85.3956 287.183 84.8766 288.411 83.8386C289.639 82.7832 290.565 81.3472 291.188 79.5306C291.828 77.7141 292.148 75.6466 292.148 73.3283C292.148 71.01 291.828 68.9425 291.188 67.1259C290.565 65.3093 289.639 63.8733 288.411 62.818C287.183 61.7626 285.651 61.235 283.818 61.235C281.966 61.235 280.409 61.7626 279.146 62.818C277.901 63.8733 276.958 65.3093 276.318 67.1259C275.695 68.9425 275.383 71.01 275.383 73.3283C275.383 75.6466 275.695 77.7141 276.318 79.5306C276.958 81.3472 277.901 82.7832 279.146 83.8386C280.409 84.8766 281.966 85.3956 283.818 85.3956Z" fill="white"/>
<path d="M240.977 93.9596C236.877 93.9596 233.347 93.1291 230.389 91.4683C227.448 89.7901 225.181 87.4198 223.59 84.3576C221.998 81.278 221.202 77.6362 221.202 73.4321C221.202 69.3318 221.998 65.7332 223.59 62.6363C225.181 59.5395 227.422 57.126 230.311 55.3959C233.218 53.6658 236.626 52.8008 240.536 52.8008C243.166 52.8008 245.614 53.2247 247.88 54.0724C250.164 54.9028 252.153 56.1572 253.849 57.8353C255.562 59.5135 256.894 61.6242 257.845 64.1675C258.797 66.6934 259.273 69.6518 259.273 73.0428V76.0791H225.614V69.228H248.866C248.866 67.6363 248.52 66.2263 247.828 64.9979C247.136 63.7695 246.176 62.8093 244.948 62.1173C243.737 61.408 242.327 61.0533 240.718 61.0533C239.039 61.0533 237.551 61.4426 236.254 62.2211C234.974 62.9824 233.97 64.0118 233.244 65.3093C232.517 66.5896 232.145 68.0169 232.128 69.5913V76.1051C232.128 78.0774 232.491 79.7815 233.218 81.2175C233.962 82.6535 235.008 83.7607 236.358 84.5393C237.707 85.3178 239.308 85.7071 241.159 85.7071C242.387 85.7071 243.512 85.5341 244.532 85.188C245.553 84.842 246.427 84.323 247.153 83.631C247.88 82.9389 248.434 82.0912 248.814 81.0877L259.039 81.7625C258.52 84.2192 257.456 86.3645 255.847 88.1984C254.255 90.015 252.197 91.4337 249.671 92.4544C247.162 93.4579 244.264 93.9596 240.977 93.9596Z" fill="white"/>
<path d="M195.255 108.959C191.674 108.959 188.603 108.466 186.042 107.48C183.499 106.511 181.475 105.188 179.97 103.51C178.464 101.831 177.487 99.9457 177.037 97.8523L187.262 96.4769C187.573 97.2727 188.066 98.0166 188.741 98.7087C189.416 99.4007 190.307 99.9543 191.414 100.37C192.539 100.802 193.905 101.018 195.514 101.018C197.919 101.018 199.9 100.43 201.457 99.2537C203.032 98.0945 203.819 96.1481 203.819 93.4146V86.1223H203.352C202.867 87.2295 202.141 88.2762 201.172 89.2624C200.203 90.2485 198.957 91.053 197.435 91.6759C195.912 92.2987 194.096 92.6101 191.985 92.6101C188.992 92.6101 186.267 91.9181 183.81 90.534C181.371 89.1326 179.425 86.996 177.971 84.124C176.535 81.2348 175.817 77.5843 175.817 73.1726C175.817 68.657 176.553 64.8854 178.023 61.8578C179.494 58.8301 181.449 56.5637 183.888 55.0585C186.345 53.5534 189.035 52.8008 191.959 52.8008C194.191 52.8008 196.059 53.1814 197.565 53.9426C199.07 54.6866 200.281 55.6208 201.198 56.7454C202.132 57.8526 202.85 58.9426 203.352 60.0152H203.767V53.3198H214.744V93.5703C214.744 96.9613 213.914 99.7986 212.253 102.082C210.592 104.366 208.291 106.079 205.35 107.221C202.426 108.38 199.061 108.959 195.255 108.959ZM195.488 84.3057C197.27 84.3057 198.776 83.8645 200.004 82.9822C201.25 82.0825 202.201 80.8023 202.859 79.1414C203.533 77.4632 203.871 75.4563 203.871 73.1207C203.871 70.785 203.542 68.7608 202.885 67.0481C202.227 65.318 201.276 63.9772 200.03 63.0256C198.784 62.0741 197.27 61.5983 195.488 61.5983C193.672 61.5983 192.141 62.0914 190.895 63.0775C189.649 64.0464 188.707 65.3958 188.066 67.1259C187.426 68.856 187.106 70.8542 187.106 73.1207C187.106 75.4217 187.426 77.4113 188.066 79.0895C188.724 80.7504 189.667 82.0393 190.895 82.9562C192.141 83.8559 193.672 84.3057 195.488 84.3057Z" fill="white"/>
<path d="M42.0625 46.2439C45.8818 48.5624 51.822 50.5142 59.8831 52.0995C69.1116 53.9144 78.7759 54.8219 88.8759 54.8219C98.3134 54.8219 107.56 53.9678 116.617 52.2597C124.889 50.6994 131.259 48.7235 135.728 46.332C135.552 45.7496 135.366 45.1718 135.169 44.5988C130.879 42.3022 124.705 40.3541 116.645 38.7544C107.393 36.9181 98.1368 36 88.8768 36C79.5398 36 70.0592 36.9004 60.4348 38.7011C52.5897 40.1689 46.7324 41.8826 42.8627 43.8422C42.5755 44.6334 42.3086 45.4342 42.0625 46.2439Z" fill="#38996C"/>
<path d="M40.4174 53.8362C40.1421 55.9133 40 58.0319 40 60.1833C40 64.3003 40.5203 68.2972 41.4994 72.113C44.4337 73.6974 47.4729 75.0983 50.6169 76.3156C54.4192 77.788 58.4017 79.0046 62.5644 79.9654C66.7271 80.9262 70.9805 81.6789 75.3247 82.2233C79.669 82.7678 84.1878 83.0401 88.8813 83.0401C93.3885 83.0401 97.9586 82.7856 102.591 82.2768C107.224 81.7679 111.706 81.0098 116.036 80.0027C120.367 78.9956 124.385 77.7395 128.091 76.2342C131.039 75.0367 133.752 73.7075 136.229 72.2467C137.23 68.3905 137.763 64.3484 137.763 60.1833C137.763 58.0284 137.62 55.9065 137.344 53.8262C134.313 55.1706 131.009 56.3836 127.433 57.465C123.56 58.6362 119.469 59.6258 115.159 60.4337C110.849 61.2418 106.428 61.8379 101.896 62.222C97.3634 62.6062 92.9952 62.7983 88.7908 62.7983C84.1582 62.7983 79.6021 62.5884 75.1226 62.1686C70.6432 61.7489 66.2988 61.135 62.0895 60.327C57.8802 59.5191 53.8619 58.5421 50.0346 57.3962C46.5137 56.3421 43.308 55.1555 40.4174 53.8362Z" fill="#38996C"/>
<path d="M131.381 84.082C129.922 84.5888 128.425 85.0763 126.889 85.5445C122.895 86.7619 118.713 87.7747 114.342 88.5827C109.972 89.3906 105.611 90.0098 101.261 90.4402C96.9103 90.8707 92.7539 91.0859 88.7917 91.0859C84.6433 91.0859 80.5714 90.876 76.5762 90.4563C72.581 90.0365 68.5091 89.4458 64.3603 88.684C60.2115 87.9223 56.0722 86.9454 51.9421 85.7532C50.0623 85.2106 48.1906 84.6211 46.3271 83.9849C54.7247 98.6388 70.6359 108.527 88.8821 108.527C107.088 108.527 122.969 98.6824 131.381 84.082Z" fill="#38996C"/>
</g>
<defs>
<filter id="filter0_d_1651_1222" x="0" y="0" width="514" height="152.959" filterUnits="userSpaceOnUse" color-interpolation-filters="sRGB">
<feFlood flood-opacity="0" result="BackgroundImageFix"/>
<feColorMatrix in="SourceAlpha" type="matrix" values="0 0 0 0 0 0 0 0 0 0 0 0 0 0 0 0 0 0 127 0" result="hardAlpha"/>
<feOffset dy="4"/>
<feGaussianBlur stdDeviation="20"/>
<feComposite in2="hardAlpha" operator="out"/>
<feColorMatrix type="matrix" values="0 0 0 0 0 0 0 0 0 0 0 0 0 0 0 0 0 0 0.8 0"/>
<feBlend mode="normal" in2="BackgroundImageFix" result="effect1_dropShadow_1651_1222"/>
<feBlend mode="normal" in="SourceGraphic" in2="effect1_dropShadow_1651_1222" result="shape"/>
</filter>
</defs>
</svg>
